<?xml version="1.0" encoding="utf-8"?>
<!-- Generator: Adobe Illustrator 27.3.1, SVG Export Plug-In . SVG Version: 6.00 Build 0)  -->
<svg width="55px" height="55px" version="1.1" id="Layer_1" xmlns="http://www.w3.org/2000/svg" xmlns:xlink="http://www.w3.org/1999/xlink" x="0px" y="0px"
	 viewBox="0 0 55 55" style="enable-background:new 0 0 55 55;" xml:space="preserve">
<style type="text/css">
	.st0{fill-rule:evenodd;clip-rule:evenodd;}
	.st1{fill:#FFFFFF;}
</style>
<path id="Oval" class="st0" d="M27.5,55c14.4,0,26.1-11.7,26.1-26.1c0-14.4-11.7-26.1-26.1-26.1C13.1,2.8,1.4,14.5,1.4,28.9
	C1.4,43.3,13.1,55,27.5,55z"/>
<g>
	<path class="st1" d="M31,30.8c-0.1-0.2-0.3-0.4-0.6-0.4c-0.2,0-0.6-0.1-1.1-0.2c-0.4-0.1-1.1-0.1-2.1-0.1H25c0,1.3,0,2.3,0,3.1v3.5
		c0,0.9,0,1.6,0.1,1.9c0.2,0.7,0.6,1.1,1.3,1.1h0.3v1h-8.6v-1h0.3c0.7,0,1.1-0.4,1.3-1.1c0.1-0.3,0.1-0.9,0.1-1.9V21.2
		c0-0.9,0-1.6-0.1-1.9c-0.2-0.7-0.6-1.1-1.3-1.1h-0.3v-1h18.5l0.2,6.7h-1c0-0.7-0.2-1.1-0.6-1.5c-0.4-0.3-0.9-0.6-1.3-1
		c-1.1-1-2.8-1.5-5-1.5h-3.9c0,1.8,0,3,0,3.6c0,1.6,0,2.8,0,3.4h2.1c1.9,0,3.2-0.3,3.7-1V30.8z"/>
</g>
</svg>
